<svg width="17" height="17" viewBox="0 0 17 17" fill="none" xmlns="http://www.w3.org/2000/svg">
<g clip-path="url(#clip0_81_56)">
<path d="M3.1875 2.65625L13.8125 14.3438" stroke="#F2B80C" stroke-opacity="0.5" stroke-linecap="round" stroke-linejoin="round"/>
<path d="M10.286 10.4654C9.79858 10.912 9.1608 11.1586 8.49972 11.1561C7.9636 11.156 7.44004 10.9937 6.99787 10.6905C6.55571 10.3874 6.21564 9.95747 6.02236 9.4574C5.82909 8.95733 5.79166 8.41047 5.915 7.88873C6.03833 7.36699 6.31666 6.89478 6.71339 6.53418" stroke="#F2B80C" stroke-opacity="0.5" stroke-linecap="round" stroke-linejoin="round"/>
<path d="M4.91406 4.55566C2.20469 5.92363 1.0625 8.5002 1.0625 8.5002C1.0625 8.5002 3.1875 13.2814 8.5 13.2814C9.74483 13.2916 10.9741 13.0048 12.0859 12.4447" stroke="#F2B80C" stroke-opacity="0.5" stroke-linecap="round" stroke-linejoin="round"/>
<path d="M13.852 11.2293C15.2996 9.93439 15.9371 8.50002 15.9371 8.50002C15.9371 8.50002 13.8121 3.71877 8.49961 3.71877C8.03905 3.71786 7.57924 3.75562 7.125 3.83166" stroke="#F2B80C" stroke-opacity="0.5" stroke-linecap="round" stroke-linejoin="round"/>
<path d="M8.99805 5.89014C9.56293 5.99717 10.0777 6.28503 10.4646 6.71028C10.8515 7.13554 11.0896 7.67511 11.143 8.24756" stroke="#F2B80C" stroke-opacity="0.5" stroke-linecap="round" stroke-linejoin="round"/>
</g>
<defs>
<clipPath id="clip0_81_56">
<rect width="17" height="17" fill="white"/>
</clipPath>
</defs>
</svg>
