<svg width="14" height="18" viewBox="0 0 14 18" fill="none" xmlns="http://www.w3.org/2000/svg">
<path d="M12.95 17.15H1.05C0.771523 17.15 0.504451 17.0394 0.307538 16.8425C0.110625 16.6455 0 16.3785 0 16.1V6.3C0 6.02152 0.110625 5.75445 0.307538 5.55754C0.504451 5.36062 0.771523 5.25 1.05 5.25H12.95C13.2285 5.25 13.4955 5.36062 13.6925 5.55754C13.8894 5.75445 14 6.02152 14 6.3V16.1C14 16.3785 13.8894 16.6455 13.6925 16.8425C13.4955 17.0394 13.2285 17.15 12.95 17.15ZM1.05 5.95C0.957174 5.95 0.86815 5.98687 0.802513 6.05251C0.736875 6.11815 0.7 6.20717 0.7 6.3V16.1C0.7 16.1928 0.736875 16.2818 0.802513 16.3475C0.86815 16.4131 0.957174 16.45 1.05 16.45H12.95C13.0428 16.45 13.1318 16.4131 13.1975 16.3475C13.2631 16.2818 13.3 16.1928 13.3 16.1V6.3C13.3 6.20717 13.2631 6.11815 13.1975 6.05251C13.1318 5.98687 13.0428 5.95 12.95 5.95H1.05Z" fill="#F2B80C"/>
<path d="M7 13.9999C6.63271 13.9999 6.27472 13.8843 5.97676 13.6696C5.67879 13.4548 5.45595 13.1517 5.3398 12.8033C5.22366 12.4549 5.22009 12.0787 5.3296 11.7281C5.43912 11.3775 5.65616 11.0703 5.95 10.8499V9.4499C5.95 9.17143 6.06062 8.90435 6.25754 8.70744C6.45445 8.51053 6.72152 8.3999 7 8.3999C7.27848 8.3999 7.54555 8.51053 7.74246 8.70744C7.93937 8.90435 8.05 9.17143 8.05 9.4499V10.8499C8.34384 11.0703 8.56088 11.3775 8.6704 11.7281C8.77991 12.0787 8.77634 12.4549 8.6602 12.8033C8.54405 13.1517 8.32121 13.4548 8.02324 13.6696C7.72528 13.8843 7.36729 13.9999 7 13.9999ZM7 9.0999C6.90717 9.0999 6.81815 9.13678 6.75251 9.20241C6.68687 9.26805 6.65 9.35708 6.65 9.4499V11.0424C6.65024 11.1041 6.63419 11.1647 6.60346 11.2182C6.57273 11.2717 6.52841 11.3161 6.475 11.3469C6.31631 11.4385 6.18435 11.5701 6.09225 11.7285C6.00015 11.8869 5.95111 12.0667 5.95 12.2499C5.95 12.5284 6.06062 12.7955 6.25754 12.9924C6.45445 13.1893 6.72152 13.2999 7 13.2999C7.27848 13.2999 7.54555 13.1893 7.74246 12.9924C7.93937 12.7955 8.05 12.5284 8.05 12.2499C8.04889 12.0667 7.99985 11.8869 7.90775 11.7285C7.81565 11.5701 7.68369 11.4385 7.525 11.3469C7.47159 11.3161 7.42727 11.2717 7.39654 11.2182C7.36581 11.1647 7.34976 11.1041 7.35 11.0424V9.4499C7.35 9.35708 7.31313 9.26805 7.24749 9.20241C7.18185 9.13678 7.09283 9.0999 7 9.0999Z" fill="#F2B80C"/>
<path d="M3.4999 5.95C3.40708 5.95 3.31805 5.91313 3.25241 5.84749C3.18678 5.78185 3.1499 5.69283 3.1499 5.6V3.85C3.1499 2.82892 3.55553 1.84965 4.27754 1.12764C4.99956 0.405624 5.97882 0 6.9999 0C8.02099 0 9.00025 0.405624 9.72226 1.12764C10.4443 1.84965 10.8499 2.82892 10.8499 3.85C10.8499 3.94283 10.813 4.03185 10.7474 4.09749C10.6818 4.16313 10.5927 4.2 10.4999 4.2C10.4071 4.2 10.3181 4.16313 10.2524 4.09749C10.1868 4.03185 10.1499 3.94283 10.1499 3.85C10.1499 3.01457 9.81803 2.21335 9.22729 1.62261C8.63655 1.03187 7.83533 0.7 6.9999 0.7C6.16447 0.7 5.36326 1.03187 4.77252 1.62261C4.18178 2.21335 3.8499 3.01457 3.8499 3.85V5.6C3.8499 5.69283 3.81303 5.78185 3.74739 5.84749C3.68175 5.91313 3.59273 5.95 3.4999 5.95Z" fill="#F2B80C"/>
</svg>
