<svg width="32" height="27" viewBox="0 0 32 27" fill="none" xmlns="http://www.w3.org/2000/svg">
<rect width="31.9091" height="27" rx="13.5" fill="#FFD866"/>
<mask id="mask0_232_2187" style="mask-type:luminance" maskUnits="userSpaceOnUse" x="9" y="5" width="15" height="17">
<path d="M9 5.72705H23.7273V21.9744H9V5.72705Z" fill="white"/>
</mask>
<g mask="url(#mask0_232_2187)">
<path fill-rule="evenodd" clip-rule="evenodd" d="M18.6273 5.73682H15.564C14.1763 5.73682 13.077 5.73671 12.2167 5.85239C11.3314 5.97145 10.6148 6.22213 10.0496 6.78713C9.48454 7.35214 9.23376 8.06859 9.1147 8.95378C8.99902 9.81388 8.99902 10.9129 8.99902 12.3004V16.873C8.99902 18.2865 10.0352 19.4581 11.3895 19.67C11.4937 20.2468 11.693 20.7392 12.0939 21.1399C12.5485 21.5944 13.1208 21.7899 13.8005 21.8813C14.4552 21.9692 15.2877 21.9692 16.3204 21.9692H18.6687C19.7015 21.9692 20.5338 21.9692 21.1886 21.8813C21.8683 21.7899 22.4406 21.5944 22.8951 21.1399C23.3497 20.6855 23.5451 20.1133 23.6365 19.4337C23.7246 18.7792 23.7246 17.9469 23.7246 16.9144V13.0565C23.7246 12.024 23.7246 11.1918 23.6365 10.5372C23.5451 9.85768 23.3497 9.28548 22.8951 8.83101C22.4943 8.43022 22.0018 8.23085 21.4249 8.12669C21.2129 6.77264 20.0411 5.73682 18.6273 5.73682ZM20.2352 8.0177C20.0065 7.34967 19.3731 6.86929 18.6273 6.86929H15.6066C14.1667 6.86929 13.1437 6.87052 12.3676 6.97478C11.6079 7.07688 11.1702 7.26844 10.8506 7.58791C10.5311 7.90747 10.3395 8.34508 10.2373 9.10472C10.133 9.88061 10.1318 10.9034 10.1318 12.343V16.873C10.1318 17.6186 10.6123 18.252 11.2805 18.4807C11.2645 18.0201 11.2646 17.4993 11.2646 16.9144V13.0565C11.2645 12.024 11.2645 11.1918 11.3525 10.5372C11.4439 9.85768 11.6394 9.28548 12.0939 8.83101C12.5485 8.37654 13.1208 8.18108 13.8005 8.08977C14.4552 8.00176 15.2877 8.00176 16.3204 8.00176H18.6687C19.2538 8.00176 19.7746 8.00176 20.2352 8.0177ZM12.8949 9.63178C13.104 9.42285 13.3973 9.28661 13.9514 9.21217C14.5219 9.13547 15.2778 9.13423 16.3618 9.13423H18.6273C19.7112 9.13423 20.4672 9.13547 21.0376 9.21217C21.5917 9.28661 21.8852 9.42285 22.0941 9.63178C22.3032 9.84072 22.4394 10.1342 22.5139 10.6882C22.5906 11.2584 22.5918 12.0143 22.5918 13.098V16.873C22.5918 17.9567 22.5906 18.7125 22.5139 19.2829C22.4394 19.8368 22.3032 20.1302 22.0941 20.3392C21.8852 20.5481 21.5917 20.6843 21.0376 20.7589C20.4672 20.8355 19.7112 20.8367 18.6273 20.8367H16.3618C15.2778 20.8367 14.5219 20.8355 13.9514 20.7589C13.3973 20.6843 13.104 20.5481 12.8949 20.3392C12.6859 20.1302 12.5496 19.8368 12.4752 19.2829C12.3985 18.7125 12.3973 17.9567 12.3973 16.873V13.098C12.3973 12.0143 12.3985 11.2584 12.4752 10.6882C12.5496 10.1342 12.6859 9.84072 12.8949 9.63178Z" fill="#F7F7F7"/>
</g>
</svg>
