<svg width="14" height="14" viewBox="0 0 14 14" fill="none" xmlns="http://www.w3.org/2000/svg">
<path d="M13.6652 3.48438H10.9194L11.271 0.39444C11.2763 0.348486 11.2728 0.301895 11.2609 0.257328C11.2489 0.212762 11.2287 0.171092 11.2013 0.134698C11.174 0.0983037 11.14 0.0678986 11.1014 0.0452178C11.0628 0.0225371 11.0203 0.00802511 10.9763 0.00251059C10.9323 -0.00300394 10.8878 0.000586794 10.8451 0.013078C10.8025 0.0255692 10.7626 0.0467163 10.7278 0.0753116C10.693 0.103907 10.6639 0.13939 10.6422 0.179736C10.6205 0.220082 10.6066 0.264501 10.6013 0.310455L10.2447 3.48438H4.86032L5.21191 0.39444C5.21719 0.348486 5.21375 0.301895 5.2018 0.257328C5.18985 0.212762 5.16961 0.171092 5.14225 0.134698C5.11489 0.0983037 5.08093 0.0678986 5.04233 0.0452178C5.00372 0.0225371 4.96122 0.00802511 4.91724 0.00251059C4.87327 -0.00300394 4.82869 0.000586794 4.78605 0.013078C4.7434 0.0255692 4.70353 0.0467163 4.6687 0.0753116C4.63388 0.103907 4.60478 0.13939 4.58308 0.179736C4.56138 0.220082 4.54749 0.264501 4.54221 0.310455L4.1856 3.48438H0.940923C0.852116 3.48438 0.766946 3.52125 0.70415 3.58688C0.641354 3.6525 0.606075 3.74151 0.606075 3.83432C0.606075 3.92713 0.641354 4.01614 0.70415 4.08176C0.766946 4.14739 0.852116 4.18426 0.940923 4.18426H4.10524L3.464 9.81824H0.334848C0.246041 9.81824 0.160871 9.85511 0.0980748 9.92074C0.0352786 9.98636 0 10.0754 0 10.1682C0 10.261 0.0352786 10.35 0.0980748 10.4156C0.160871 10.4812 0.246041 10.5181 0.334848 10.5181H3.38364L3.03205 13.6081C3.02644 13.6539 3.02958 13.7005 3.0413 13.7451C3.05302 13.7897 3.07308 13.8314 3.10032 13.8679C3.12757 13.9043 3.16146 13.9348 3.20003 13.9574C3.2386 13.9801 3.28109 13.9946 3.32504 14H3.36522C3.44749 14.0006 3.52709 13.9696 3.58885 13.9128C3.65061 13.856 3.6902 13.7774 3.70007 13.692L4.05836 10.5181H9.44272L9.09113 13.6081C9.08551 13.6539 9.08866 13.7005 9.10037 13.7451C9.11209 13.7897 9.13216 13.8314 9.1594 13.8679C9.18665 13.9043 9.22053 13.9348 9.25911 13.9574C9.29768 13.9801 9.34017 13.9946 9.38412 14H9.4243C9.50657 14.0006 9.58617 13.9696 9.64793 13.9128C9.70969 13.856 9.74928 13.7774 9.75915 13.692L10.1174 10.5181H13.0591C13.1479 10.5181 13.2331 10.4812 13.2958 10.4156C13.3586 10.35 13.3939 10.261 13.3939 10.1682C13.3939 10.0754 13.3586 9.98636 13.2958 9.92074C13.2331 9.85511 13.1479 9.81824 13.0591 9.81824H10.1978L10.839 4.18426H13.6652C13.754 4.18426 13.8391 4.14739 13.9019 4.08176C13.9647 4.01614 14 3.92713 14 3.83432C14 3.74151 13.9647 3.6525 13.9019 3.58688C13.8391 3.52125 13.754 3.48438 13.6652 3.48438ZM9.52308 9.81824H4.13872L4.77996 4.18426H10.1643L9.52308 9.81824Z" fill="#F2B80C"/>
</svg>
