<svg width="281" height="126" viewBox="0 0 281 126" fill="none" xmlns="http://www.w3.org/2000/svg">
<path d="M3 3C3 3 27.5 84.0838 36.5 77.5838C41.7022 71.2195 54.1408 13.5583 62.5 24.5C70.8592 35.4417 85.2416 91.9846 91 77.5838C96.7584 63.1829 97.0386 48.4361 107 49.5C116.961 50.5639 122.066 90.3086 133.505 88.4355C144.945 86.5624 151.973 57.6191 158.5 67.5C165.027 77.3809 171.653 106.938 177.257 95.6776C182.861 84.4176 191.37 88.5084 197.5 88.4355C203.63 88.3627 205.427 104.643 214.064 107.664C222.701 110.685 228.478 105.523 228.478 105.523C228.478 105.523 239.942 91.2804 244.848 92.2509C249.754 93.2214 260.536 102.304 263.388 107.664C266.24 113.024 274.895 123.541 278.5 123.5" stroke="#FF0004" stroke-width="5" stroke-linecap="round" stroke-linejoin="round"/>
</svg>
